<svg width="140" height="140" viewBox="0 0 140 140" fill="none" xmlns="http://www.w3.org/2000/svg">
<path d="M69.6725 139.844C59.9725 139.844 50.2571 139.658 40.5571 139.925C35.8067 140.064 33.2016 138.765 30.9183 135.657C21.0038 122.39 10.6294 109.32 0.898718 95.9715C-0.465113 94.1159 -0.173965 90.7875 1.0826 88.7464C4.38172 83.5246 8.16603 78.4865 12.407 73.6699C14.9201 70.7474 14.4451 68.4975 12.1619 65.7489C8.10859 61.0727 4.44908 56.2077 1.20521 51.1828C-0.0819956 49.0953 -0.43442 45.7205 0.944734 43.8301C10.6754 30.4817 21.065 17.4231 30.9796 4.14423C33.3088 1.04776 36.0978 -0.00760559 40.741 0.0387835C60.3862 0.22434 80.0367 0.22434 99.6922 0.0387835C101.686 -0.1177 103.695 0.201821 105.437 0.952572C107.179 1.70332 108.568 2.84768 109.408 4.22538C119.199 17.3303 129.436 30.2497 138.983 43.4474C140.339 45.9478 140.339 48.752 138.983 51.2523C136.499 55.7011 133.314 59.9066 129.497 63.7775C125.13 68.2308 125.222 72.2898 129.788 76.1981C142.538 87.1111 141.695 97.4327 130.064 108.902C121.912 116.939 116.089 126.368 109.622 135.356C107.262 138.649 104.596 140.099 99.4776 139.995C89.5937 139.624 79.6331 139.844 69.6725 139.844ZM6.26209 45.2914C25.984 45.2914 43.5453 45.1638 61.0912 45.3725C66.3013 45.3725 69.458 44.2128 72.0631 40.7336C79.725 30.0757 88.1072 19.6614 96.1063 9.10787C96.9995 7.58812 97.7173 6.01275 98.2517 4.39937C78.5605 4.39937 59.9419 4.39936 41.3539 4.49214C40.3751 4.5163 39.4142 4.69727 38.5346 5.02312C37.655 5.34897 36.8767 5.8123 36.251 6.3825C26.505 18.78 17.0042 31.2935 6.26209 45.2914ZM133.16 95.6004C131.627 95.0901 131.213 94.8117 130.754 94.8117C119.552 94.7421 108.182 95.6004 97.1637 94.4638C78.683 92.5503 65.8875 96.5166 59.6047 110.514C58.0723 114.086 54.5478 117.171 52.0347 120.523C48.5868 125.162 45.2309 129.801 40.9862 135.483C61.8727 135.483 80.8283 135.541 99.9066 135.379C100.875 135.251 101.796 134.967 102.608 134.547C103.419 134.127 104.102 133.58 104.611 132.944C114.143 120.697 123.46 108.346 133.16 95.6004ZM104.55 6.684C94.1449 20.3224 84.6287 32.6271 75.4344 44.955C74.9906 45.5957 74.7336 46.301 74.6807 47.0232C74.6278 47.7454 74.7803 48.4678 75.1279 49.1416C84.4295 61.7131 93.9763 74.1802 103.676 86.9604C105.101 86.0674 106.113 85.7079 106.573 85.1164C115.767 73.3104 124.823 61.5044 133.727 49.6056C134.166 48.946 134.415 48.2229 134.454 47.4847C134.494 46.7465 134.324 46.0105 133.956 45.3262C124.609 32.8475 115.031 20.4152 104.55 6.684ZM35.163 131.935C36.5268 131.111 37.2778 130.856 37.6149 130.427C46.7173 118.621 55.9116 106.85 64.6769 94.9045C65.719 93.4896 65.2286 90.7759 64.11 89.2103C58.1796 80.9182 51.8508 72.7885 45.5986 64.624C42.6258 60.7158 39.607 56.8422 35.3929 51.3915C34.2436 53.3514 33.8605 54.1053 33.3855 54.778C24.4976 66.4448 15.4412 78.0537 6.87509 89.8713C5.77177 91.3906 6.41537 94.3131 7.64129 96.0179C14.5984 105.655 21.9385 115.119 29.2021 124.628C31.0409 127.099 33.079 129.441 35.163 131.993V131.935ZM97.9911 90.3468C97.9563 89.3971 97.7659 88.4544 97.4242 87.5403C88.4137 75.7265 79.3675 63.905 70.2855 52.0758C69.4734 51.032 67.7417 49.7563 66.3779 49.7563C58.4401 49.536 50.487 49.6519 40.7716 49.6519C51.4218 63.5686 61.0299 76.2213 70.8525 88.7696C71.4138 89.2599 72.1048 89.6557 72.8808 89.9314C73.6568 90.207 74.5007 90.3565 75.3578 90.37C82.6979 90.4976 90.0381 90.4048 97.9452 90.4048L97.9911 90.3468ZM133.727 89.9757L121.728 74.3657L110.066 89.9757H133.727ZM30.1215 50.1042H6.78315L18.6745 65.4822C22.9193 59.8228 26.2292 55.3926 30.1215 50.1042Z" fill="white"/>
</svg>
